<svg height="512pt" viewBox="0 -33 512 512" width="512pt" xmlns="http://www.w3.org/2000/svg"><path d="m300.488281 183.101562-14.535156-130.425781c-1.125.460938-2.375.714844-3.679687.714844h-53.183594c-1.082032 0-2.113282-.171875-3.074219-.492187l-14.507813 130.203124-4.910156 37.183594 49.402344-16.746094 49.398438 16.746094zm0 0" fill="#e5ecec"/><path d="m282.269531 53.390625h-53.179687c-6.175782 0-10.796875-5.664063-9.558594-11.710937l4.882812-23.878907c.929688-4.539062 4.925782-7.800781 9.558594-7.800781h43.410156c4.632813 0 8.628907 3.257812 9.558594 7.800781l4.886719 23.878907c1.238281 6.046874-3.386719 11.710937-9.558594 11.710937zm0 0" fill="#8291a8"/><path d="m258.132812 386.101562h-67.273437l15.035156 40.4375h100.207031l15.035157-40.4375zm0 0" fill="#8291a8"/><path d="m502 298.054688v18.03125l-180.863281 47.089843v-116.238281l69.429687 20.445312v37.621094h32.714844v-27.398437zm0 0" fill="#e5ecec"/><path d="m390.566406 240.273438h32.714844v64.730468h-32.714844zm0 0" fill="#8291a8"/><path d="m10 298.054688v18.03125l180.859375 47.089843v-116.238281l-69.425781 20.445312v37.621094h-32.714844v-27.398437zm0 0" fill="#e5ecec"/><path d="m88.71875 240.273438h32.714844v64.730468h-32.714844zm0 0" fill="#8291a8"/><path d="m255.996094 203.542969-65.136719 22.078125v160.480468h130.277344v-160.480468zm0 0" fill="#e5ecec"/><path d="m190.859375 225.621094 40.085937 36.90625v81.550781l-40.085937 42.023437zm0 0" fill="#f0838f"/><path d="m321.136719 225.621094-40.085938 36.90625v81.550781l40.085938 42.023437zm0 0" fill="#f0838f"/><path d="m255.996094 203.542969v58.984375h-25.050782l-40.085937-36.90625zm0 0" fill="#95e8fa"/><path d="m255.996094 203.542969v58.984375h25.054687l40.085938-36.90625zm0 0" fill="#95e8fa"/><g fill="#f0838f"><path d="m190.859375 363.175781-137.660156 49.855469v-85.695312zm0 0"/><path d="m321.136719 363.175781 137.660156 49.855469v-85.695312zm0 0"/><path d="m190.859375 363.175781-137.660156 49.855469v-85.695312zm0 0"/><path d="m321.136719 363.175781 137.660156 49.855469v-85.695312zm0 0"/></g><path d="m502 248.898438c-5.523438 0-10 4.476562-10 10v26.222656l-58.71875-15.25v-29.597656c0-5.523438-4.476562-10-10-10h-32.714844c-5.523437 0-10 4.476562-10 10v13.738281l-49.429687-14.558594v-13.835937c0-4.226563-2.785157-8.121094-6.796875-9.472657l-9.839844-3.335937-4.082031-30.917969-13.890625-124.59375c.363281-.375.714844-.761719 1.046875-1.171875 3.769531-4.613281 5.242187-10.613281 4.050781-16.449219l-4.886719-23.882812c-1.875-9.148438-10.015625-15.792969-19.355469-15.792969h-43.410156c-9.339844 0-17.480468 6.644531-19.355468 15.796875l-4.886719 23.878906c-1.191407 5.835938.285156 11.835938 4.050781 16.449219.507812.621094 1.046875 1.203125 1.617188 1.75l-13.820313 124.015625-4.082031 30.921875-9.847656 3.335938c-4.023438 1.238281-6.789063 5.332031-6.789063 9.472656v13.835937l-49.425781 14.558594v-13.742187c0-5.519532-4.476563-10-10-10h-32.714844c-5.523438 0-10 4.480468-10 10v29.597656l-58.71875 15.25v-26.222656c0-5.523438-4.476562-10-10-10s-10 4.476562-10 10v77.695312c0 5.523438 4.476562 10 10 10s10-4.476562 10-10v-7.570312l23.199219 6.039062v100.59375c0 5.519531 4.476562 10 10 10 5.523437 0 10-4.480469 10-10v-15.609375l117.660156-42.617187v8.667968c0 1.179688.214844 2.378906.625 3.484375l15.035156 40.441407c1.457031 3.917968 5.195313 6.515624 9.375 6.515624h100.207031c4.179688 0 7.917969-2.597656 9.375-6.515624l15.035157-40.441407c.40625-1.105469.625-2.304687.625-3.484375v-8.667968l117.660156 42.617187v15.609375c0 5.519531 4.476563 10 10 10 5.519531 0 10-4.480469 10-10v-100.59375l23.203125-6.039062v7.570312c0 5.523438 4.476562 10 10 10s10-4.476562 10-10v-77.695312c0-5.523438-4.476562-10-10-10zm-101.433594 1.375h12.714844v44.730468h-12.714844zm-154.886718-186.882813v65.382813c0 5.523437 4.476562 10 10 10 5.519531 0 10-4.476563 10-10v-65.382813h11.40625l13.464843 120.820313c.007813.066406.015625.132812.023438.199218l2.808593 21.242188-34.171874-11.585938c-2.0625-.695312-4.363282-.695312-6.421876 0l-34.171874 11.585938 2.804687-21.242188c.007813-.066406.015625-.132812.023437-.199218l13.460938-120.820313zm65.457031 297.742187-20.085938-21.058593v-73.164063l20.085938-18.492187zm-76.289063-108.609374-24.8125-22.84375 35.960938-12.1875v35.03125zm31.152344-35.03125 35.960938 12.1875-24.8125 22.84375h-11.148438zm-45.054688 49.417968v73.164063l-20.085937 21.058593v-112.714843zm17.238282 84.070313c1.773437-1.859375 2.761718-4.332031 2.761718-6.902344v-71.554687h30.105469v71.554687c0 2.570313.988281 5.042969 2.765625 6.902344l23.960938 25.117187h-83.558594zm-4.011719-330.980469h43.011719l4.785156 23.390625h-52.582031zm-135.453125 230.273438h12.714844v44.726562h-12.714844zm-78.71875 55.511718 58.71875-15.25v14.46875c0 5.523438 4.476562 10 10 10h32.714844c5.523437 0 10-4.476562 10-10v-30.140625l49.425781-14.558593v89.933593l-125.140625-32.582031c-.003906 0-.011719-.003906-.015625-.003906l-35.703125-9.296875zm43.199219 34.488282 93.976562 24.464843-93.976562 34.035157zm235.953125 76.265624h-86.308594l-7.597656-20.4375h101.503906zm149.644531-17.765624-93.976563-34.035157 93.976563-24.46875zm7.507813-81.121094c-.007813 0-.019532 0-.027344.003906l-125.140625 32.582031v-89.933593l49.429687 14.558593v30.140625c0 5.523438 4.476563 10 10 10h32.714844c5.523438 0 10-4.476562 10-10v-14.46875l58.71875 15.25v2.570313zm0 0"/><path d="m255.679688 176.308594c4.171874 0 7.988281-2.703125 9.402343-6.617188 1.417969-3.921875.171875-8.46875-3.058593-11.117187-3.320313-2.722657-8.148438-3-11.757813-.675781-3.484375 2.246093-5.253906 6.542968-4.339844 10.589843 1.019531 4.507813 5.125 7.820313 9.753907 7.820313zm0 0"/></svg>